<svg xmlns="http://www.w3.org/2000/svg" version="1.1" xmlns:xlink="http://www.w3.org/1999/xlink" xmlns:svgjs="http://svgjs.dev/svgjs" width="2000" height="454" viewBox="0 0 2000 454"><g transform="matrix(1,0,0,1,-1.2121212121212466,0.4066185044923998)"><svg viewBox="0 0 396 90" data-background-color="#ffffff" preserveAspectRatio="xMidYMid meet" height="454" width="2000" xmlns="http://www.w3.org/2000/svg" xmlns:xlink="http://www.w3.org/1999/xlink"><g id="tight-bounds" transform="matrix(1,0,0,1,0.2400000000000091,-0.0806071925205174)"><svg viewBox="0 0 395.52 90.16121438504102" height="90.16121438504102" width="395.52"><g><svg viewBox="0 0 638.8040541971814 145.6193094672973" height="90.16121438504102" width="395.52"><g transform="matrix(1,0,0,1,0,20.125389369214034)"><svg viewBox="0 0 395.52 105.36853072886925" height="105.36853072886925" width="395.52"><g id="textblocktransform"><svg viewBox="0 0 395.52 105.36853072886925" height="105.36853072886925" width="395.52" id="textblock"><g><svg viewBox="0 0 395.52 58.66788541581653" height="58.66788541581653" width="395.52"><g transform="matrix(1,0,0,1,0,0)"><svg width="395.52" viewBox="2.25 -35.18 236.42999999999998 35.5" height="58.66788541581653" data-palette-color="#6b7280"><g class="wordmark-text-0" data-fill-palette-color="primary" id="text-0"><path d="M5.64-13.21L5.64 0 2.25 0 2.25-34.86 10.47-34.86Q14.89-34.86 16.92-33.45 18.95-32.03 19.17-28.76L19.17-28.76Q19.41-26.03 19.41-23.83 19.41-21.63 19.17-19.31L19.17-19.31Q18.95-16.06 16.91-14.64 14.87-13.21 10.38-13.21L10.38-13.21 5.64-13.21ZM10.47-31.74L5.64-31.74 5.64-16.33 10.38-16.33Q13.21-16.33 14.44-17.03 15.67-17.72 15.8-19.17L15.8-19.17Q16.16-24.02 15.8-28.93L15.8-28.93Q15.67-30.37 14.45-31.05 13.23-31.74 10.47-31.74L10.47-31.74ZM30.15 0.29L30.15 0.29Q26.12 0.29 24.4-0.98 22.68-2.25 22.56-5.13L22.56-5.13Q22.46-6.93 22.42-9.38 22.39-11.82 22.42-14.28 22.46-16.75 22.56-18.58L22.56-18.58Q22.68-21.53 24.45-22.8 26.22-24.07 30.15-24.07L30.15-24.07Q33.86-24.07 35.52-22.83 37.18-21.58 37.35-18.73L37.35-18.73Q37.4-17.87 37.45-15.75 37.5-13.62 37.3-11.23L37.3-11.23 25.61-11.23Q25.61-9.69 25.63-8.11 25.66-6.52 25.73-4.81L25.73-4.81Q25.75-3.47 26.76-2.95 27.76-2.44 30.05-2.44L30.05-2.44Q32.32-2.44 33.25-2.95 34.18-3.47 34.27-4.81L34.27-4.81Q34.35-6.15 34.27-8.47L34.27-8.47 37.3-8.47Q37.42-7.76 37.41-6.82 37.4-5.88 37.35-5.13L37.35-5.13Q37.18-2.25 35.61-0.98 34.03 0.29 30.15 0.29ZM25.61-13.82L25.61-13.82 34.32-13.82Q34.37-15.48 34.37-16.99 34.37-18.51 34.27-19.07L34.27-19.07Q34.18-20.29 33.23-20.81 32.27-21.34 30.15-21.34L30.15-21.34Q27.78-21.34 26.77-20.81 25.75-20.29 25.73-19.07L25.73-19.07Q25.66-17.65 25.62-16.36 25.58-15.06 25.61-13.82ZM44.67-19.19L44.67 0 41.52 0 41.52-23.75 44.67-23.75 44.67-21.53 45.36-21.53Q45.99-22.75 47.04-23.41 48.09-24.07 49.65-24.07L49.65-24.07Q52-24.07 53.13-22.84 54.27-21.61 54.27-18.58L54.27-18.58Q54.27-17.92 54.22-17.02 54.17-16.11 54.07-15.41L54.07-15.41 51.04-15.41Q51.09-15.65 51.11-16.26 51.12-16.87 51.13-17.48 51.14-18.09 51.14-18.31L51.14-18.31Q51.14-20.12 50.53-20.76 49.92-21.41 48.58-21.41L48.58-21.41Q45.72-21.41 44.67-19.19L44.67-19.19ZM64.54 0.29L64.54 0.29Q60.61 0.29 59.09-0.98 57.56-2.25 57.44-5.13L57.44-5.13Q57.39-5.88 57.38-6.82 57.37-7.76 57.46-8.47L57.46-8.47 60.32-8.47Q60.27-7.35 60.28-6.41 60.3-5.47 60.32-4.81L60.32-4.81Q60.34-3.47 61.26-2.95 62.18-2.44 64.54-2.44L64.54-2.44Q66.96-2.44 67.95-2.95 68.94-3.47 69.01-4.81L69.01-4.81Q69.08-5.64 69.11-6.04 69.13-6.45 69.11-7.2L69.11-7.2Q69.04-8.45 68.45-9.13 67.86-9.81 65.91-10.11L65.91-10.11 63.05-10.77Q60.86-11.23 59.66-11.94 58.46-12.65 57.98-13.78 57.49-14.92 57.39-16.65L57.39-16.65Q57.32-17.53 57.51-18.58L57.51-18.58Q57.56-21.53 59.11-22.8 60.66-24.07 64.76-24.07L64.76-24.07Q68.69-24.07 70.22-22.83 71.75-21.58 71.89-18.73L71.89-18.73Q71.89-17.99 71.88-17.05 71.87-16.11 71.79-15.41L71.79-15.41 68.84-15.41Q68.96-16.26 68.95-17.36 68.94-18.46 68.89-19.07L68.89-19.07Q68.86-20.36 68-20.85 67.13-21.34 64.76-21.34L64.76-21.34Q62.37-21.34 61.5-20.85 60.64-20.36 60.54-19.07L60.54-19.07Q60.51-18.46 60.47-18.05 60.42-17.65 60.44-16.94L60.44-16.94Q60.51-16.09 60.7-15.43 60.88-14.77 61.53-14.34 62.18-13.92 63.64-13.7L63.64-13.7 66.37-13.13Q69.35-12.52 70.72-11.24 72.09-9.96 72.09-7.37L72.09-7.37Q72.09-6.84 72.08-6.23 72.06-5.62 72.01-5.05L72.01-5.05Q71.84-2.2 70.22-0.95 68.6 0.29 64.54 0.29ZM83.14 0.29L83.14 0.29Q79.16 0.29 77.53-1.07 75.89-2.44 75.77-5.62L75.77-5.62Q75.62-7.42 75.58-9.63 75.53-11.84 75.58-14.09 75.62-16.33 75.77-18.16L75.77-18.16Q75.89-21.34 77.54-22.71 79.19-24.07 83.14-24.07L83.14-24.07Q87.15-24.07 88.75-22.71 90.35-21.34 90.47-18.16L90.47-18.16Q90.62-16.36 90.66-14.15 90.71-11.94 90.66-9.7 90.62-7.47 90.47-5.62L90.47-5.62Q90.35-2.47 88.75-1.09 87.15 0.29 83.14 0.29ZM83.14-2.44L83.14-2.44Q85.39-2.44 86.34-2.99 87.29-3.54 87.37-4.81L87.37-4.81Q87.61-8.62 87.61-11.89 87.61-15.16 87.37-18.97L87.37-18.97Q87.29-20.26 86.37-20.8 85.44-21.34 83.14-21.34L83.14-21.34Q80.85-21.34 79.91-20.8 78.97-20.26 78.9-18.97L78.9-18.97Q78.68-15.16 78.66-11.88 78.65-8.59 78.9-4.81L78.9-4.81Q78.95-3.54 79.93-2.99 80.92-2.44 83.14-2.44ZM98.03-19.19L98.03 0 94.88 0 94.88-23.75 98.03-23.75 98.03-21.53 98.79-21.53Q99.55-22.75 100.78-23.41 102.01-24.07 103.89-24.07L103.89-24.07Q106.65-24.07 108-22.86 109.34-21.66 109.34-18.82L109.34-18.82 109.34 0 106.21 0 106.21-19.09Q106.21-20.31 105.44-20.86 104.68-21.41 102.97-21.41L102.97-21.41Q101.26-21.41 99.96-20.83 98.67-20.24 98.03-19.19L98.03-19.19ZM119.3 0.27L119.3 0.27Q116.32 0.27 114.89-0.9 113.46-2.08 113.22-4.57L113.22-4.57Q113.19-5.05 113.16-5.54 113.12-6.03 113.17-6.49L113.17-6.49Q113.34-8.67 114.54-10.14 115.73-11.62 119.08-12.84L119.08-12.84Q120.44-13.33 121.96-13.72 123.47-14.11 124.96-14.48L124.96-14.48 124.96-18.99Q124.96-20.19 124.06-20.76 123.15-21.34 120.91-21.34L120.91-21.34Q118.95-21.34 117.94-20.85 116.93-20.36 116.83-19.07L116.83-19.07Q116.78-18.46 116.78-17.32 116.78-16.19 116.83-15.41L116.83-15.41 113.78-15.41Q113.73-16.02 113.68-16.99 113.63-17.97 113.71-18.73L113.71-18.73Q113.83-21.56 115.55-22.81 117.27-24.07 121.03-24.07L121.03-24.07Q124.96-24.07 126.49-22.71 128.01-21.34 128.04-18.21L128.04-18.21 128.04 0 124.96 0 124.96-2.25 124.28-2.25Q123.67-1.03 122.53-0.38 121.4 0.27 119.3 0.27ZM120.08-2.37L120.08-2.37Q123.59-2.37 124.94-4.47L124.94-4.47 124.94-11.87Q123.76-11.62 122.53-11.29 121.3-10.96 119.64-10.4L119.64-10.4Q117.66-9.67 117-8.72 116.34-7.76 116.24-6.49L116.24-6.49Q116.27-6.13 116.28-5.7 116.29-5.27 116.34-4.81L116.34-4.81Q116.51-3.64 117.51-3 118.52-2.37 120.08-2.37ZM136.29-31.69L136.29 0 133.11 0 133.11-31.69 136.29-31.69Z" fill="#000000" data-fill-palette-color="primary"></path><path d="M157.04 0.32L157.04 0.32Q152.4 0.32 150.37-1.14 148.35-2.59 148.25-5.93L148.25-5.93Q148.03-11.52 148.03-17.4 148.03-23.27 148.25-28.81L148.25-28.81Q148.35-32.25 150.37-33.72 152.4-35.18 156.97-35.18L156.97-35.18Q161.41-35.18 163.45-33.74 165.49-32.3 165.66-28.98L165.66-28.98Q165.8-27.42 165.79-25.81 165.78-24.19 165.66-22.63L165.66-22.63 162.26-22.63Q162.39-24.29 162.4-26.09 162.41-27.88 162.26-29.54L162.26-29.54Q162.17-30.93 160.9-31.59 159.63-32.25 156.97-32.25L156.97-32.25Q154.26-32.25 152.97-31.59 151.69-30.93 151.64-29.54L151.64-29.54Q151.45-23.51 151.46-17.44 151.47-11.38 151.64-5.37L151.64-5.37Q151.69-3.96 152.94-3.28 154.18-2.61 157.04-2.61L157.04-2.61Q159.87-2.61 161.21-3.28 162.56-3.96 162.65-5.37L162.65-5.37Q162.7-8.69 162.65-11.99L162.65-11.99 156.92-11.99 156.92-15.06 165.95-15.06Q166.07-13.35 166.1-11.08 166.12-8.81 165.98-5.93L165.98-5.93Q165.9-2.59 163.79-1.14 161.68 0.32 157.04 0.32ZM173.1-19.19L173.1 0 169.95 0 169.95-23.75 173.1-23.75 173.1-21.53 173.79-21.53Q174.42-22.75 175.47-23.41 176.52-24.07 178.08-24.07L178.08-24.07Q180.43-24.07 181.56-22.84 182.7-21.61 182.7-18.58L182.7-18.58Q182.7-17.92 182.65-17.02 182.6-16.11 182.5-15.41L182.5-15.41 179.47-15.41Q179.52-15.65 179.53-16.26 179.55-16.87 179.56-17.48 179.57-18.09 179.57-18.31L179.57-18.31Q179.57-20.12 178.96-20.76 178.35-21.41 177.01-21.41L177.01-21.41Q174.15-21.41 173.1-19.19L173.1-19.19ZM191.95 0.27L191.95 0.27Q188.97 0.27 187.54-0.9 186.11-2.08 185.87-4.57L185.87-4.57Q185.84-5.05 185.81-5.54 185.77-6.03 185.82-6.49L185.82-6.49Q185.99-8.67 187.19-10.14 188.38-11.62 191.73-12.84L191.73-12.84Q193.09-13.33 194.61-13.72 196.12-14.11 197.61-14.48L197.61-14.48 197.61-18.99Q197.61-20.19 196.71-20.76 195.8-21.34 193.56-21.34L193.56-21.34Q191.6-21.34 190.59-20.85 189.58-20.36 189.48-19.07L189.48-19.07Q189.43-18.46 189.43-17.32 189.43-16.19 189.48-15.41L189.48-15.41 186.43-15.41Q186.38-16.02 186.33-16.99 186.28-17.97 186.36-18.73L186.36-18.73Q186.48-21.56 188.2-22.81 189.92-24.07 193.68-24.07L193.68-24.07Q197.61-24.07 199.14-22.71 200.66-21.34 200.69-18.21L200.69-18.21 200.69 0 197.61 0 197.61-2.25 196.93-2.25Q196.32-1.03 195.18-0.38 194.05 0.27 191.95 0.27ZM192.73-2.37L192.73-2.37Q196.24-2.37 197.59-4.47L197.59-4.47 197.59-11.87Q196.41-11.62 195.18-11.29 193.95-10.96 192.29-10.4L192.29-10.4Q190.31-9.67 189.65-8.72 188.99-7.76 188.89-6.49L188.89-6.49Q188.92-6.13 188.93-5.7 188.94-5.27 188.99-4.81L188.99-4.81Q189.16-3.64 190.16-3 191.17-2.37 192.73-2.37ZM210.43 0.29L210.43 0.29Q207.67 0.29 206.32-0.93 204.98-2.15 204.91-4.96L204.91-4.96Q204.81-6.96 204.77-9.35 204.74-11.74 204.77-14.21 204.81-16.67 204.91-18.82L204.91-18.82Q204.98-21.66 206.36-22.86 207.74-24.07 210.47-24.07L210.47-24.07Q212.5-24.07 213.66-23.45 214.82-22.83 215.67-21.53L215.67-21.53 216.31-21.53 216.31-31.69 219.43-31.69 219.43 0 216.31 0 216.31-2.25 215.6-2.25Q214.77-1.03 213.61-0.37 212.45 0.29 210.43 0.29ZM211.33-2.37L211.33-2.37Q215.02-2.37 216.31-4.59L216.31-4.59 216.31-19.19Q215.04-21.41 211.35-21.41L211.35-21.41Q209.64-21.41 208.88-20.86 208.11-20.31 208.08-19.09L208.08-19.09Q207.94-15.43 207.96-11.66 207.98-7.89 208.08-4.69L208.08-4.69Q208.13-3.49 208.88-2.93 209.62-2.37 211.33-2.37ZM231.37 0.29L231.37 0.29Q227.34 0.29 225.62-0.98 223.9-2.25 223.78-5.13L223.78-5.13Q223.68-6.93 223.64-9.38 223.61-11.82 223.64-14.28 223.68-16.75 223.78-18.58L223.78-18.58Q223.9-21.53 225.67-22.8 227.44-24.07 231.37-24.07L231.37-24.07Q235.08-24.07 236.74-22.83 238.4-21.58 238.57-18.73L238.57-18.73Q238.62-17.87 238.67-15.75 238.72-13.62 238.52-11.23L238.52-11.23 226.83-11.23Q226.83-9.69 226.85-8.11 226.88-6.52 226.95-4.81L226.95-4.81Q226.98-3.47 227.98-2.95 228.98-2.44 231.27-2.44L231.27-2.44Q233.54-2.44 234.47-2.95 235.4-3.47 235.5-4.81L235.5-4.81Q235.57-6.15 235.5-8.47L235.5-8.47 238.52-8.47Q238.65-7.76 238.63-6.82 238.62-5.88 238.57-5.13L238.57-5.13Q238.4-2.25 236.83-0.98 235.25 0.29 231.37 0.29ZM226.83-13.82L226.83-13.82 235.55-13.82Q235.59-15.48 235.59-16.99 235.59-18.51 235.5-19.07L235.5-19.07Q235.4-20.29 234.45-20.81 233.49-21.34 231.37-21.34L231.37-21.34Q229-21.34 227.99-20.81 226.98-20.29 226.95-19.07L226.95-19.07Q226.88-17.65 226.84-16.36 226.8-15.06 226.83-13.82Z" fill="#000000" data-fill-palette-color="secondary"></path></g></svg></g></svg></g><g transform="matrix(1,0,0,1,163.310208,72.51796513324084)"><svg viewBox="0 0 232.209792 32.85056559562841" height="32.85056559562841" width="232.209792"><g transform="matrix(1,0,0,1,0,0)"><svg width="232.209792" viewBox="3.49 -35.5 321.64 45.51" height="32.85056559562841" data-palette-color="#000000"><path d="M23.19-18.41L23.19 0 22.19 0 20.36-2.81Q19.21-1.29 17.58-0.4 15.94 0.49 13.94 0.49L13.94 0.49 12.11 0.49Q10.33 0.49 8.75-0.18 7.18-0.85 6.01-2.03 4.83-3.2 4.16-4.76 3.49-6.32 3.49-8.11L3.49-8.11 3.49-26.9Q3.49-28.69 4.16-30.25 4.83-31.81 6.01-32.98 7.18-34.16 8.75-34.83 10.33-35.5 12.11-35.5L12.11-35.5 14.6-35.5Q16.38-35.5 17.94-34.83 19.51-34.16 20.68-32.98 21.85-31.81 22.52-30.25 23.19-28.69 23.19-26.9L23.19-26.9 23.19-25.49 20.04-25 20.04-26.9Q20.04-28.08 19.6-29.09 19.17-30.1 18.41-30.86 17.65-31.62 16.64-32.06 15.63-32.5 14.45-32.5L14.45-32.5 12.26-32.5Q11.08-32.5 10.07-32.06 9.06-31.62 8.29-30.86 7.52-30.1 7.08-29.09 6.64-28.08 6.64-26.9L6.64-26.9 6.64-8.11Q6.64-6.93 7.08-5.92 7.52-4.91 8.29-4.14 9.06-3.37 10.07-2.93 11.08-2.49 12.26-2.49L12.26-2.49 14.45-2.49Q15.63-2.49 16.64-2.93 17.65-3.37 18.41-4.14 19.17-4.91 19.6-5.92 20.04-6.93 20.04-8.11L20.04-8.11 20.04-15.41 14.45-15.41 14.45-18.41 23.19-18.41ZM40.06-22.14L37.06-22.14Q36.15-22.14 35.36-21.8 34.57-21.46 33.98-20.87 33.4-20.29 33.05-19.49 32.71-18.7 32.71-17.8L32.71-17.8 32.71 0 29.71 0 29.71-25 30.71-25 32.35-22.46Q33.37-23.85 34.92-24.67 36.47-25.49 38.3-25.49L38.3-25.49 40.06-25.49 40.06-22.14ZM60.76-6.86L60.76-6.86Q60.76-5.35 60.19-4 59.61-2.66 58.61-1.66 57.61-0.66 56.27-0.09 54.93 0.49 53.41 0.49L53.41 0.49 51.41 0.49Q49.9 0.49 48.55-0.09 47.21-0.66 46.21-1.66 45.21-2.66 44.64-4 44.06-5.35 44.06-6.86L44.06-6.86 44.06-18.14Q44.06-19.65 44.64-21 45.21-22.34 46.21-23.34 47.21-24.34 48.55-24.91 49.9-25.49 51.41-25.49L51.41-25.49 53.41-25.49Q54.93-25.49 56.27-24.91 57.61-24.34 58.61-23.34 59.61-22.34 60.19-21 60.76-19.65 60.76-18.14L60.76-18.14 60.76-6.86ZM57.76-6.69L57.76-18.31Q57.76-19.21 57.42-20.01 57.08-20.8 56.49-21.39 55.9-21.97 55.11-22.31 54.32-22.66 53.41-22.66L53.41-22.66 51.41-22.66Q50.51-22.66 49.71-22.31 48.92-21.97 48.33-21.39 47.75-20.8 47.41-20.01 47.07-19.21 47.07-18.31L47.07-18.31 47.07-6.69Q47.07-5.79 47.41-4.99 47.75-4.2 48.33-3.61 48.92-3.03 49.71-2.69 50.51-2.34 51.41-2.34L51.41-2.34 53.41-2.34Q54.32-2.34 55.11-2.69 55.9-3.03 56.49-3.61 57.08-4.2 57.42-4.99 57.76-5.79 57.76-6.69L57.76-6.69ZM96.16-25L87.81 0 86.17 0 80.31-18.85 80.22-20.14 80.12-18.85 74.26 0 72.6 0 64.25-25 67.3-25 73.26-6.1 73.36-4.81 73.45-6.1 79.31-25 81.12-25 86.96-6.1 87.05-4.81 87.15-6.1 93.11-25 96.16-25ZM130.36-35.01L121.37-16.75 121.37 0 118.22 0 118.22-16.7 109.17-35.01 112.56-35.01 119.76-20.46 126.97-35.01 130.36-35.01ZM149.06-6.86L149.06-6.86Q149.06-5.35 148.48-4 147.91-2.66 146.91-1.66 145.91-0.66 144.57-0.09 143.22 0.49 141.71 0.49L141.71 0.49 139.71 0.49Q138.19 0.49 136.85-0.09 135.51-0.66 134.51-1.66 133.51-2.66 132.93-4 132.36-5.35 132.36-6.86L132.36-6.86 132.36-18.14Q132.36-19.65 132.93-21 133.51-22.34 134.51-23.34 135.51-24.34 136.85-24.91 138.19-25.49 139.71-25.49L139.71-25.49 141.71-25.49Q143.22-25.49 144.57-24.91 145.91-24.34 146.91-23.34 147.91-22.34 148.48-21 149.06-19.65 149.06-18.14L149.06-18.14 149.06-6.86ZM146.05-6.69L146.05-18.31Q146.05-19.21 145.71-20.01 145.37-20.8 144.78-21.39 144.2-21.97 143.41-22.31 142.61-22.66 141.71-22.66L141.71-22.66 139.71-22.66Q138.8-22.66 138.01-22.31 137.22-21.97 136.63-21.39 136.04-20.8 135.7-20.01 135.36-19.21 135.36-18.31L135.36-18.31 135.36-6.69Q135.36-5.79 135.7-4.99 136.04-4.2 136.63-3.61 137.22-3.03 138.01-2.69 138.8-2.34 139.71-2.34L139.71-2.34 141.71-2.34Q142.61-2.34 143.41-2.69 144.2-3.03 144.78-3.61 145.37-4.2 145.71-4.99 146.05-5.79 146.05-6.69L146.05-6.69ZM171.76 0L170.76 0 169.1-2.54Q168.07-1.15 166.54-0.33 165 0.49 163.17 0.49L163.17 0.49 162.41 0.49Q160.9 0.49 159.55-0.09 158.21-0.66 157.21-1.66 156.21-2.66 155.63-4 155.06-5.35 155.06-6.86L155.06-6.86 155.06-25 158.06-25 158.06-6.69Q158.06-5.79 158.41-4.99 158.75-4.2 159.33-3.61 159.92-3.03 160.71-2.69 161.51-2.34 162.41-2.34L162.41-2.34 164.41-2.34Q165.31-2.34 166.11-2.69 166.9-3.03 167.49-3.61 168.07-4.2 168.42-4.99 168.76-5.79 168.76-6.69L168.76-6.69 168.76-25 171.76-25 171.76 0ZM188.11-22.14L185.11-22.14Q184.21-22.14 183.42-21.8 182.62-21.46 182.04-20.87 181.45-20.29 181.11-19.49 180.77-18.7 180.77-17.8L180.77-17.8 180.77 0 177.76 0 177.76-25 178.76-25 180.4-22.46Q181.43-23.85 182.98-24.67 184.53-25.49 186.36-25.49L186.36-25.49 188.11-25.49 188.11-22.14ZM224.32-22.05L224.32-22.05Q224.32-20.26 223.64-18.7 222.97-17.14 221.8-15.97 220.63-14.79 219.05-14.12 217.48-13.45 215.7-13.45L215.7-13.45 207.76-13.45 207.76 0 204.61 0 204.61-35.01 215.7-35.01Q217.48-35.01 219.05-34.34 220.63-33.67 221.8-32.5 222.97-31.32 223.64-29.75 224.32-28.17 224.32-26.39L224.32-26.39 224.32-22.05ZM221.17-22.05L221.17-26.39Q221.17-27.56 220.73-28.58 220.29-29.59 219.52-30.36 218.75-31.13 217.74-31.57 216.72-32.01 215.55-32.01L215.55-32.01 207.76-32.01 207.76-16.46 215.55-16.46Q216.72-16.46 217.74-16.89 218.75-17.33 219.52-18.09 220.29-18.85 220.73-19.86 221.17-20.87 221.17-22.05L221.17-22.05ZM246.02-6.86L246.02-6.86Q246.02-5.35 245.44-4 244.87-2.66 243.87-1.66 242.87-0.66 241.53-0.09 240.18 0.49 238.67 0.49L238.67 0.49 236.67 0.49Q235.15 0.49 233.81-0.09 232.47-0.66 231.47-1.66 230.47-2.66 229.89-4 229.32-5.35 229.32-6.86L229.32-6.86 229.32-18.14Q229.32-19.65 229.89-21 230.47-22.34 231.47-23.34 232.47-24.34 233.81-24.91 235.15-25.49 236.67-25.49L236.67-25.49 238.67-25.49Q240.18-25.49 241.53-24.91 242.87-24.34 243.87-23.34 244.87-22.34 245.44-21 246.02-19.65 246.02-18.14L246.02-18.14 246.02-12.26 232.32-12.26 232.32-6.69Q232.32-5.79 232.66-4.99 233-4.2 233.59-3.61 234.18-3.03 234.97-2.69 235.76-2.34 236.67-2.34L236.67-2.34 238.67-2.34Q239.57-2.34 240.37-2.69 241.16-3.03 241.74-3.61 242.33-4.2 242.67-4.99 243.01-5.79 243.01-6.69L243.01-6.69 243.01-8.35 246.02-7.86 246.02-6.86ZM243.01-14.6L243.01-18.31Q243.01-19.21 242.67-20.01 242.33-20.8 241.74-21.39 241.16-21.97 240.37-22.31 239.57-22.66 238.67-22.66L238.67-22.66 236.67-22.66Q235.76-22.66 234.97-22.31 234.18-21.97 233.59-21.39 233-20.8 232.66-20.01 232.32-19.21 232.32-18.31L232.32-18.31 232.32-14.6 243.01-14.6ZM268.72-6.86L268.72-6.86Q268.72-5.35 268.15-4 267.57-2.66 266.57-1.66 265.57-0.66 264.23-0.09 262.89 0.49 261.37 0.49L261.37 0.49 259.37 0.49Q257.86 0.49 256.51-0.09 255.17-0.66 254.17-1.66 253.17-2.66 252.59-4 252.02-5.35 252.02-6.86L252.02-6.86 252.02-18.14Q252.02-19.65 252.59-21 253.17-22.34 254.17-23.34 255.17-24.34 256.51-24.91 257.86-25.49 259.37-25.49L259.37-25.49 261.37-25.49Q262.89-25.49 264.23-24.91 265.57-24.34 266.57-23.34 267.57-22.34 268.15-21 268.72-19.65 268.72-18.14L268.72-18.14 268.72-6.86ZM265.72-6.69L265.72-18.31Q265.72-19.21 265.38-20.01 265.03-20.8 264.45-21.39 263.86-21.97 263.07-22.31 262.27-22.66 261.37-22.66L261.37-22.66 259.37-22.66Q258.47-22.66 257.67-22.31 256.88-21.97 256.29-21.39 255.71-20.8 255.37-20.01 255.02-19.21 255.02-18.31L255.02-18.31 255.02-6.69Q255.02-5.79 255.37-4.99 255.71-4.2 256.29-3.61 256.88-3.03 257.67-2.69 258.47-2.34 259.37-2.34L259.37-2.34 261.37-2.34Q262.27-2.34 263.07-2.69 263.86-3.03 264.45-3.61 265.03-4.2 265.38-4.99 265.72-5.79 265.72-6.69L265.72-6.69ZM291.42-6.86L291.42-6.86Q291.42-5.35 290.85-4 290.28-2.66 289.27-1.66 288.27-0.66 286.93-0.09 285.59 0.49 284.07 0.49L284.07 0.49 283.32 0.49Q281.63 0.49 280.19-0.2 278.75-0.88 277.73-2.1L277.73-2.1 277.73 10.01 274.72 10.01 274.72-25 275.72-25 277.36-22.46Q278.39-23.85 279.94-24.67 281.49-25.49 283.32-25.49L283.32-25.49 284.07-25.49Q285.59-25.49 286.93-24.91 288.27-24.34 289.27-23.34 290.28-22.34 290.85-21 291.42-19.65 291.42-18.14L291.42-18.14 291.42-6.86ZM288.42-6.69L288.42-18.31Q288.42-19.21 288.08-20.01 287.74-20.8 287.15-21.39 286.56-21.97 285.77-22.31 284.98-22.66 284.07-22.66L284.07-22.66 282.07-22.66Q281.17-22.66 280.38-22.31 279.58-21.97 279-21.39 278.41-20.8 278.07-20.01 277.73-19.21 277.73-18.31L277.73-18.31 277.73-6.69Q277.73-5.79 278.07-4.99 278.41-4.2 279-3.61 279.58-3.03 280.38-2.69 281.17-2.34 282.07-2.34L282.07-2.34 284.07-2.34Q284.98-2.34 285.77-2.69 286.56-3.03 287.15-3.61 287.74-4.2 288.08-4.99 288.42-5.79 288.42-6.69L288.42-6.69ZM301.43 0L298.43 0 298.43-35.01 301.43-35.01 301.43 0ZM325.13-6.86L325.13-6.86Q325.13-5.35 324.56-4 323.99-2.66 322.98-1.66 321.98-0.66 320.64-0.09 319.3 0.49 317.78 0.49L317.78 0.49 315.78 0.49Q314.27 0.49 312.93-0.09 311.58-0.66 310.58-1.66 309.58-2.66 309.01-4 308.43-5.35 308.43-6.86L308.43-6.86 308.43-18.14Q308.43-19.65 309.01-21 309.58-22.34 310.58-23.34 311.58-24.34 312.93-24.91 314.27-25.49 315.78-25.49L315.78-25.49 317.78-25.49Q319.3-25.49 320.64-24.91 321.98-24.34 322.98-23.34 323.99-22.34 324.56-21 325.13-19.65 325.13-18.14L325.13-18.14 325.13-12.26 311.44-12.26 311.44-6.69Q311.44-5.79 311.78-4.99 312.12-4.2 312.71-3.61 313.29-3.03 314.09-2.69 314.88-2.34 315.78-2.34L315.78-2.34 317.78-2.34Q318.69-2.34 319.48-2.69 320.28-3.03 320.86-3.61 321.45-4.2 321.79-4.99 322.13-5.79 322.13-6.69L322.13-6.69 322.13-8.35 325.13-7.86 325.13-6.86ZM322.13-14.6L322.13-18.31Q322.13-19.21 321.79-20.01 321.45-20.8 320.86-21.39 320.28-21.97 319.48-22.31 318.69-22.66 317.78-22.66L317.78-22.66 315.78-22.66Q314.88-22.66 314.09-22.31 313.29-21.97 312.71-21.39 312.12-20.8 311.78-20.01 311.44-19.21 311.44-18.31L311.44-18.31 311.44-14.6 322.13-14.6Z" opacity="1" transform="matrix(1,0,0,1,0,0)" fill="#000000" class="slogan-text-1" data-fill-palette-color="secondary" id="text-1"></path></svg></g></svg></g></svg></g></svg></g><g transform="matrix(1,0,0,1,409.3700797174243,0)"><svg viewBox="0 0 229.43397447975707 145.6193094672973" height="145.6193094672973" width="229.43397447975707"><g><svg xmlns="http://www.w3.org/2000/svg" xmlns:xlink="http://www.w3.org/1999/xlink" version="1.1" x="0" y="0" viewBox="1.4902701278571835 21.999 95.492041129187 60.60778540050896" enable-background="new 0 0 100 100" xml:space="preserve" height="145.6193094672973" width="229.43397447975707" class="icon-icon-0" data-fill-palette-color="accent" id="icon-0"><path fill="#000000" d="M95.101 33.76c0 0-1.878-2.459-4.65-3.22 0 0-0.355-1.162 0.315-1.743 0.67-0.581 2.459-3.825-2.057-5.624 0 0-5.902-0.681-3.667 4.236 0 0 0.627 1.387-0.178 1.789-0.805 0.402-3.444 0.716-5.769 3.533-2.325 2.817-1.968 3.891-1.968 3.891s-2.057-3.398-5.991-3.398l-0.226-1.118c0 0 2.013 0.582 2.327-1.744 0.312-2.325-1.209-1.744-1.209-1.744s1.565-3.98-3.531-3.98c0 0-3.399 0.537-2.817 4.115 0.581 3.577 1.476 3.532 1.476 3.532l0.224 0.894c0 0-1.521-0.045-1.834 0.224 0 0-1.296-2.236-4.918-3.265 0 0 3.442-5.813-2.416-7.467 0 0-3.845-0.045-3.89 2.281-0.045 2.325 1.208 5.231 1.208 5.231s-3.399 0.806-4.204 2.326S50.7 35.191 50.7 35.191l-1.47-0.179c0 0 2.23-2.996 1.022-5.947-1.207-2.952-4.203-3.354-6.484-2.146 0 0-3.979 1.654-2.772 4.739 0 0 0.358 1.341 0.828 2.102 0 0-1.588 0.089-1.946 0.582 0 0-1.655-4.248-5.947-5.099 0 0 4.203-6.215-2.594-7.244 0 0-4.114 0.493-4.025 2.773 0 0 0.134 2.504 0.805 3.755l0.089 0.805c0 0-1.967-0.581-3.845 1.207l-0.447 1.834c0 0-1.699-1.968-4.695-1.834 0 0 0.491-2.683 0.491-3.085s0.671-0.582 0.671-0.582-0.984-4.472-5.612-3.645c0 0-1.621-0.347-2.605 0.682-0.983 1.029-0.833 3.583-0.833 4.298 0 0.716 1.344 1.21 1.75 1.121 0.405-0.089 0.768 0.538 0.768 0.538l0.181 0.313c0 0-3.89 0.269-4.829 1.879-0.939 1.61-1.788 5.858-2.236 6.574-0.447 0.715-5.053 8.854-5.053 8.854s0.313 1.161 0.761 1.341c0 0-0.76 1.117-1.028 1.43s-0.134 1.924 0 2.147 0.715 0 0.715 0-0.268-1.028 0.402-1.655c0.671-0.625 0.358-0.312 0.358-0.312l0.134 0.805 0.402 0.313c0 0 0-0.851 0.178-1.298 0.179-0.446 0.134-0.893 0.134-0.893L5 49.771c0 0 3.309-5.949 3.622-6.665 0.313-0.715 1.564-4.785 2.013-4.694 0.446 0.089 0.268 1.118 0.268 1.118s0.224 3.667-1.251 5.724c-1.476 2.057-3.042 6.35-3.042 6.886 0 0 0.716 0.973 3.935 2.135L10.634 59h-0.313c0 0-0.787 1.13-0.563 2.829L10 62.291v8.494l0.184 1.833c0 0-1.117 1.03-1.072 1.656 0.045 0.624 0.829 1.653 1.365 2.057 0.537 0.401 2.649 0.626 2.917 0.356 0 0 0.633-2.146 0.409-3.532l-0.58-0.49c0 0 0.777-8.229 1-9.615L15 62.513v-2.996l-0.348-0.179c0 0 0.875-4.204 1.099-4.381 0.223-0.18 0.393 0.313 0.393 0.313s-0.386 8.139 0.016 8.766c0.403 0.623 0.771 1.071 0.771 1.071l0.316-0.135 1.075 8.229c0 0 0.091 3.936-0.221 4.336-0.313 0.403-0.289 0.717 0.235 0.984 0.525 0.269 3.388 0.269 3.521 0 0.134-0.268 0.536-1.341 0.357-1.967-0.179-0.627-0.536-3.89-1.789-4.069 0 0 0.805-7.379 0.895-7.691l0.67-0.313c0 0-0.313-2.279-0.402-2.504-0.089-0.223 0.358-6.663 0.358-6.663l2.057-0.717c0 0-0.895-2.1-0.895-3.083 0-0.984-0.268-6.842-2.325-9.794l0.067-1.788 1.811-1.141c0 0 2.08 2.549 3.958 2.951 0 0-1.542 8.249-1.408 10.53 0.134 2.282 1.408 8.184 1.408 8.184s0.872 1.341 0.804 1.946c-0.066 0.603-0.469 3.555 2.282 6.438 0 0-1.41 3.557-1.812 4.092-0.402 0.536-2.08 3.02-1.476 4.025 0 0 0.336 0.604 2.348 0.67 0 0-0.67 0.94 0.336 1.811 1.006 0.874 3.798 0.521 3.798 0.521s0.226-1.794 1.367-2.397 1.878-1.072 1.476-2.012c-0.403-0.939-1.274-2.013-1.274-2.013s-1.745-2.951-1.61-5.501c0.134-2.549 0.604-6.171 0.671-8.585l2.682-0.603c0 0 2.952-0.201 3.019-1.274 0.067-1.075-0.201-9.191-2.347-14.422 0 0 2.615-0.738 2.884-1.14 0 0 1.139 4.494 0.335 7.245 0 0-0.939 2.078-0.738 4.491 0.201 2.417 2.46 11.873 2.46 11.873l0.691-0.067c0 0 1.074 6.71 1.946 8.05 0 0-0.067 0.939-0.939 1.811-0.872 0.874-0.67 1.945-0.67 1.945s0.134 1.007 0.134 1.342c0 0.337 0.336 2.146 3.153 2.08 0 0 2.012-2.415 2.28-2.749 0.269-0.337 0.202-1.678 0-1.88-0.2-0.2-0.804-1.006-0.804-1.006s-0.537-0.604-0.469-1.878c0.067-1.273 0.804-3.756 0.872-8.317 0 0 4.025-1.542 6.169-2.684 0 0 1.208 6.037 1.276 6.641 0.065 0.604 1.341 0.469 1.341 0.469s2.214 5.836 2.482 7.112c0.268 1.273 0 2.013 0 2.013s-2.013 0.066-2.013 1.273c0 1.208 2.079 2.616 5.634 1.811 0 0 1.408-0.671 0.872-3.151-0.536-2.482-1.609-9.458-0.872-10.801l1.343 0.269 0.603-2.482 0.806-0.134c0 0-0.27 5.971 2.549 10.061l0.508 2.244c0 0-0.912-0.7-1.85 0.037-0.939 0.738-1.477 3.823 3.086 3.689 0 0 2.146 0 2.348-0.671 0.201-0.67-0.47-1.544-0.47-1.544l-0.068-0.469c0 0 1.175-0.065 1.493-0.132 0.317-0.067 0.453-1.611 0.453-1.611l-0.605-2.146c0 0-0.602-0.873-0.468-2.079 0.133-1.21 1.207-3.957-0.2-8.452 0 0-0.874-1.476 0-2.952 0.869-1.477 1.676-3.688 2.815-5.633 0 0 0.134 0.536 1.142 0.737 0 0-0.672-2.684 0-2.55 0 0-0.023 0.604 0.515 0.739 0 0-0.135-0.579 0-1.498 0.134-0.918 0-3.02 0-3.02l1.832-3.711c0 0-1.162 6.484-0.849 6.975l0.849 0.091c0 0-1.291 10.418 0.721 13.37C81.47 69.713 83 74.14 83 75.078c0 0.94 0 7.514 0 7.514s3.435 0.268 4.104-1.478c0.674-1.744 0.38-1.878 1.183-2.95 0.805-1.073 2.335-2.146 2.335-2.146s-2.253-2.416-2.118-5.233c0.134-2.816 1.623-12.476 3.5-14.757 1.878-2.281 0.796-5.231 0.796-5.231l1.2-0.268v6.037c0 0-0.588 2.549 0.483 3.486 1.074 0.94 1.384-0.938 1.384-0.938s-0.718-2.549-0.046-3.087c0.67-0.536 0.916-1.609 0.916-1.609S97.917 41.81 95.101 33.76zM53.07 50.572l-0.18 0.941-2.258-6.156L53.249 43h0.536l0.581 0.611L53.07 50.572zM77.039 43.464c-0.449 0.358-1.699 3.734-1.699 3.734l-0.404-0.202c0 0-1.073-2.057-0.984-3.174 0.091-1.117 0.762-3.175 0.762-3.175s0.268-0.85 0.581-0.582c0.313 0.269 1.745 2.102 1.745 2.102S77.486 43.106 77.039 43.464z" data-fill-palette-color="accent"></path></svg></g></svg></g></svg></g><defs></defs></svg><rect width="395.52" height="90.16121438504102" fill="none" stroke="none" visibility="hidden"></rect></g></svg></g></svg>